<svg width="136" height="51" viewBox="0 0 136 51" fill="none" xmlns="http://www.w3.org/2000/svg">
<path id="Union" fill-rule="evenodd" clip-rule="evenodd" d="M76.7505 14.9286C76.7505 12.3571 77.0882 10.1429 77.7637 8.28571C78.4842 6.38095 79.4073 4.83333 80.533 3.64286C81.7038 2.40476 83.0097 1.49999 84.4506 0.928572C85.9366 0.309518 87.4451 0 88.9761 0H102.282V8.64286H89.1112C87.7153 8.64286 86.5895 9.19047 85.734 10.2857C85.2386 10.9048 84.8784 11.7381 84.6533 12.7857C86.4094 11.881 88.4808 11.4524 90.8674 11.5C93.299 11.4524 95.3929 11.9048 97.1491 12.8571C98.9052 13.7619 100.369 14.9524 101.539 16.4286C102.71 17.9048 103.566 19.5238 104.106 21.2857C104.692 23 104.984 24.6667 104.984 26.2857C104.984 27.9048 104.692 29.5714 104.106 31.2857C103.566 33 102.71 34.5714 101.539 36C100.414 37.4286 98.9502 38.5952 97.1491 39.5C95.3929 40.4048 93.299 40.8571 90.8674 40.8571C88.4358 40.8571 86.3194 40.4048 84.5182 39.5C82.762 38.5952 81.2985 37.4286 80.1278 36C79.002 34.5714 78.1464 33 77.561 31.2857C77.0207 29.5714 76.7505 27.9048 76.7505 26.2857V26.2143V14.9286ZM90.8674 32.5C91.813 32.5 92.6461 32.3095 93.3665 31.9286C94.132 31.5476 94.7625 31.0476 95.2578 30.4286C95.7982 29.8095 96.1809 29.119 96.4061 28.3571C96.6762 27.5952 96.8113 26.8571 96.8113 26.1429C96.8113 25.4286 96.6762 24.7143 96.4061 24C96.1359 23.2381 95.7531 22.5714 95.2578 22C94.7625 21.381 94.132 20.881 93.3665 20.5C92.6461 20.0714 91.813 19.8571 90.8674 19.8571C89.9217 19.8571 89.0662 20.0714 88.3007 20.5C87.5802 20.881 86.9723 21.381 86.477 22C85.9816 22.5714 85.5989 23.2381 85.3287 24C85.0585 24.7143 84.9234 25.4286 84.9234 26.1429C84.9234 26.8571 85.036 27.5952 85.2611 28.3571C85.5313 29.119 85.9141 29.8095 86.4094 30.4286C86.9498 31.0476 87.5802 31.5476 88.3007 31.9286C89.0662 32.3095 89.9217 32.5 90.8674 32.5ZM13.9142 11.2143H0V18.4152C8.05649 18.4152 12.9853 19.6397 16.6231 22.1678C19.2056 23.9624 19.2056 27.9349 16.6231 29.7295C12.9853 32.2576 8.05649 33.4821 0 33.4821V51H7.76766V40.5714H13.9142C16.3459 40.6191 18.4397 40.1905 20.1959 39.2857C21.9521 38.3333 23.4156 37.119 24.5863 35.6429C25.7571 34.1667 26.6127 32.5714 27.153 30.8571C27.7384 29.0952 28.0311 27.4048 28.0311 25.7857C28.0311 24.1667 27.7384 22.5 27.153 20.7857C26.6127 19.0714 25.7571 17.5 24.5863 16.0714C23.4606 14.6429 21.9971 13.4762 20.1959 12.5714C18.4397 11.6667 16.3459 11.2143 13.9142 11.2143ZM39.594 11.3571H31.7588V40.6429H48.5774C55.8723 40.6429 59.5197 36.8571 59.5197 29.2857C59.5197 22 56.0074 18.3095 48.9827 18.2143H39.594V11.3571ZM47.6993 33.3571H39.594V25.4286H47.6993C50.3561 25.3333 51.6845 26.619 51.6845 29.2857C51.6845 32 50.3561 33.3571 47.6993 33.3571ZM64.8557 11.3571V40.6429H72.6234V11.3571H64.8557ZM122.086 40.8571H136V11.5H122.086C119.654 11.4524 117.56 11.9048 115.804 12.8571C114.048 13.7619 112.584 14.9524 111.414 16.4286C110.243 17.9048 109.365 19.5238 108.779 21.2857C108.239 23 107.969 24.6667 107.969 26.2857C107.969 27.9048 108.239 29.5714 108.779 31.2857C109.365 33 110.22 34.5714 111.346 36C112.517 37.4286 113.98 38.5952 115.737 39.5C117.538 40.4048 119.654 40.8571 122.086 40.8571ZM116.48 28.3571C116.254 27.5952 116.142 26.8571 116.142 26.1429C116.142 25.4286 116.277 24.7143 116.547 24C116.817 23.2381 117.2 22.5714 117.695 22C118.191 21.381 118.799 20.881 119.519 20.5C120.285 20.0714 121.14 19.8571 122.086 19.8571H128.232V32.5H122.086C121.14 32.5 120.285 32.3095 119.519 31.9286C118.799 31.5476 118.168 31.0476 117.628 30.4286C117.132 29.8095 116.75 29.119 116.48 28.3571ZM10.29 25.6696C11.3101 25.6696 12.137 24.7952 12.137 23.7165C12.137 22.6378 11.3101 21.7634 10.29 21.7634C9.27001 21.7634 8.44311 22.6378 8.44311 23.7165C8.44311 24.7952 9.27001 25.6696 10.29 25.6696Z" fill="#3048EA"/>
</svg>
